{"title":"Race.to.Witch.Mountain.2009.DVDRIP.XviD-ZEKTORM","uid":5009529,"size":749675784,"categoryP":"video","categoryS":"movies","magnet":"?xt=urn:btih:418489d567c160223fabf0ddc3779fc9922ffe1c&amp;dn=Race.to.Witch.Mountain.2009.DVDRIP.XviD-ZEKTORM&amp;tr=udp%3A%2F%2Ftracker.openbittorrent.com%3A80&amp;tr=udp%3A%2F%2Fopen.demonii.com%3A1337&amp;tr=udp%3A%2F%2Ftracker.coppersurfer.tk%3A6969&amp;tr=udp%3A%2F%2Fexodus.desync.com%3A6969","seeders":0,"leechers":0,"uploader":"blowley","files":5,"time":1247878632,"description":"Title                            : Race to Witch Mountain\nYear                             : 2009\nGenre                            : Adventure | Fantasy | Sci-Fi | Thriller\niMDB URL                         : http://www.imdb.com/title/tt1075417/\nAwards                           : 1 nominations\n\nComplete name                    : RTWM-ZEKTORM.avi\nFormat                           : AVI\nFile size                        : 701 MiB\nDuration                         : 1h 38mn\nOverall bit rate                 : 997 Kbps\nSubtitles                        : English, Spanish, French (Format: VobSub)\nSource                           : DVD NTSC\n\nVideo\nFormat                           : MPEG-4 Visual\nFormat profile                   : Streaming Video@L1\nCodec ID                         : XVID\nCodec ID/Hint                    : XviD\nDuration                         : 1h 38mn\nBit rate                         : 880 Kbps\nWidth                            : 720 pixels\nHeight                           : 304 pixels\nDisplay aspect ratio             : 2.35\nFrame rate                       : 23.976 fps\nResolution                       : 24 bits\nColorimetry                      : 4:2:0\nScan type                        : Progressive\nBits/(Pixel*Frame)               : 0.168\nStream size                      : 619 MiB (88%)\nWriting library                  : XviD\n\nAudio\nFormat                           : MPEG Audio\nFormat version                   : Version 1\nFormat profile                   : Layer 3\nCodec ID                         : 55\nCodec ID/Hint                    : MP3\nDuration                         : 1h 38mn\nBit rate mode                    : Variable\nBit rate                         : 105 Kbps\nMinimum bit rate                 : 128 Kbps\nChannel(s)                       : 2 channels\nSampling rate                    : 48.0 KHz\nResolution                       : 16 bits\nStream size                      : 73.7 MiB (11%)\nWriting library                  : LAME3.98r\nEncoding settings                : ABR\n","torrent":{"xt":"urn:btih:418489d567c160223fabf0ddc3779fc9922ffe1c","amp;dn":"Race.to.Witch.Mountain.2009.DVDRIP.XviD-ZEKTORM","amp;tr":["udp%3A%2F%2Ftracker.openbittorrent.com%3A80","udp%3A%2F%2Fopen.demonii.com%3A1337","udp%3A%2F%2Ftracker.coppersurfer.tk%3A6969","udp%3A%2F%2Fexodus.desync.com%3A6969"],"infoHash":"418489d567c160223fabf0ddc3779fc9922ffe1c","infoHashBuffer":{"type":"Buffer","data":[65,132,137,213,103,193,96,34,63,171,240,221,195,119,159,201,146,47,254,28]},"announce":[],"urlList":[]}}